# xmcd
#
# Track frame offsets:
#	150
#	19912
#	42055
#	63579
#	77530
#	99725
#	121441
#	141544
#	160367
#	172476
#	189778
#	207920
#	228845
#	248928
#	268693
#
# Disc length: 3943 seconds
# Revision: 0
# Processed by: cddbd v1.5.2PL0 Copyright (c) Steve Scherf et al.
# Submitted via: dBpowerAMP V12.0
#
DISCID=d70f650f
DTITLE=Randy Crawford - Every kind of mood: Randy, Randi, Randee
DYEAR=1998
DGENRE=Soul
TTITLE0=Breaking down
TTITLE1=Bye bye (Street mix)
TTITLE2=I'd be an angel
TTITLE3=Unwounded
TTITLE4=Captain of her heart
TTITLE5=Wishing on a star
TTITLE6=Are you sure
TTITLE7=Sweet Regine
TTITLE8=Johnny
TTITLE9=Let it rain
TTITLE10=Living in silence
TTITLE11=Changes
TTITLE12=Almaz
TTITLE13=Honey for my honey
TTITLE14=Hymn of the big wheel
EXTD=
EXTT0=
EXTT1=
EXTT2=
EXTT3=
EXTT4=
EXTT5=
EXTT6=
EXTT7=
EXTT8=
EXTT9=
EXTT10=
EXTT11=
EXTT12=
EXTT13=
EXTT14=
PLAYORDER=
